# xmcd
#
# Track frame offsets:
#	150
#	43909
#	82255
#	132928
#	178930
#
# Disc length: 4102 seconds
#
# Revision: 0
# Processed by: cddbd v1.5.2PL0 Copyright (c) Steve Scherf et al.
# Submitted via: EasyCDDAExtractor 16.0.6.1
#
DISCID=47100405
DTITLE=Συλλογικός δίσκος - Μνημεία εκκλησ. μουσικής 3
DYEAR=1999
DGENRE=Βυζ. Εκκλησιαστική
TTITLE0=Βαλληνδράς Νικόδημος μητροπ. - Ρόδον το αμάραντον [ήχ. α' κ γ', Χουρμο
TTITLE0=υζίου Χαρτοφύλακος]
TTITLE1=Φιρφιρής Διονύσιος π. - Ρόδον το αμάραντον [ήχ. α' κ γ', Νικολάου πρωτ
TTITLE1=οψ. Σμύρνης]
TTITLE2=Φιρφιρής Διονύσιος π. - Θεοτόκε Παρθένε [ήχ. δ' κ πλ. α', Πέτρου Μπερε
TTITLE2=κέτη]
TTITLE3=Τσαμκιράνης Ματθαίος - Εξομολογείσθε τω Κυρίω [ήχ. βαρύς κ πλ. δ', Πέτ
TTITLE3=ρου Εφεσίου]
TTITLE4=Αντίπας ιερομ.-Αμφιλόχιος ιερομ. - Ψάλοντές σου τον τόκον [ήχ. α' κ βα
TTITLE4=ρύς κ πλ. δ', Πέτρου Μπερεκέτη]
EXTD=
EXTT0=
EXTT1=
EXTT2=
EXTT3=
EXTT4=
PLAYORDER=
